<?xml version="1.0" standalone="no"?>
<!DOCTYPE svg PUBLIC "-//W3C//DTD SVG 20010904//EN"
 "http://www.w3.org/TR/2001/REC-SVG-20010904/DTD/svg10.dtd">
<svg version="1.0" xmlns="http://www.w3.org/2000/svg"
 width="796.000000pt" height="921.000000pt" viewBox="0 0 796.000000 921.000000"
 preserveAspectRatio="xMidYMid meet">
<metadata>
Created by potrace 1.15, written by Peter Selinger 2001-2017
</metadata>
<g transform="translate(0.000000,921.000000) scale(0.100000,-0.100000)"
fill="#000000" stroke="none">
<path d="M3470 9193 c-8 -3 -41 -25 -73 -49 -82 -60 -135 -71 -211 -44 -131
45 -259 36 -459 -31 -132 -44 -191 -72 -287 -134 -164 -106 -398 -349 -469
-485 -67 -127 -83 -194 -82 -336 l0 -120 -67 9 c-37 5 -139 7 -227 4 -126 -4
-180 -10 -256 -30 -461 -120 -636 -504 -424 -927 134 -265 429 -518 802 -685
l97 -45 13 -74 c7 -40 22 -99 33 -129 21 -56 73 -137 89 -137 5 0 7 -23 5 -52
-6 -84 13 -261 35 -323 16 -44 37 -73 97 -135 51 -52 87 -80 105 -82 15 -3 26
-1 23 3 -2 4 0 10 5 13 16 11 23 -28 7 -40 -9 -6 -16 -20 -16 -30 -2 -44 -211
-182 -378 -249 -220 -88 -326 -135 -358 -157 -52 -36 -104 -122 -104 -174 0
-41 -4 -46 -47 -79 -46 -34 -51 -35 -109 -30 -68 7 -63 10 -246 -132 -51 -39
-140 -97 -198 -128 -58 -32 -120 -70 -137 -86 -32 -28 -88 -49 -130 -49 -23 0
-158 -97 -210 -152 -41 -42 -93 -142 -93 -177 0 -21 -11 -34 -52 -61 -60 -40
-88 -78 -118 -156 -29 -79 -26 -159 10 -274 46 -147 53 -260 35 -566 -23 -378
-12 -607 46 -958 21 -126 27 -188 21 -206 -5 -14 -32 -55 -59 -92 -100 -131
-104 -189 -28 -383 26 -66 51 -135 57 -154 5 -19 32 -77 60 -129 65 -123 78
-173 78 -305 0 -94 3 -114 24 -155 13 -26 35 -56 48 -68 31 -28 108 -68 191
-98 38 -14 94 -41 125 -60 64 -39 186 -68 267 -64 l50 3 9 -97 c8 -96 9 -98
34 -98 24 0 25 1 19 55 l-6 55 92 75 c81 64 193 133 201 123 3 -2 70 -217 91
-285 5 -19 13 -23 51 -23 29 0 44 4 44 13 0 6 -12 48 -26 92 -18 55 -26 105
-27 160 l-2 80 50 -3 c51 -3 154 -29 168 -41 7 -7 -22 -84 -86 -223 l-36 -78
58 0 c56 0 58 1 75 37 27 57 137 223 147 223 6 0 39 -7 74 -16 58 -15 64 -19
60 -38 -5 -21 -35 -195 -35 -203 0 -2 84 -2 187 -1 l187 3 27 90 c15 50 48
160 73 245 68 229 160 521 201 636 29 80 47 113 84 155 27 30 52 50 58 46 20
-13 73 -190 113 -383 22 -104 45 -202 50 -219 21 -65 100 -516 100 -571 0 -2
32 -4 70 -4 68 0 70 1 65 22 -2 13 -9 61 -15 108 -20 160 -51 325 -95 510 -45
189 -64 299 -85 495 -13 125 -12 133 63 400 74 264 87 329 87 450 -1 192 -18
348 -59 533 -21 98 -41 209 -45 248 -7 80 -6 81 86 142 52 36 63 39 54 17 -3
-8 -1 -15 4 -15 6 0 10 11 10 25 0 18 5 25 20 25 11 0 20 5 20 12 0 6 2 9 5 6
9 -8 -6 -59 -15 -53 -4 2 -6 -19 -4 -48 2 -28 4 -65 5 -82 1 -29 1 -29 8 -5
17 56 53 -654 49 -950 -1 -85 -4 -123 -5 -85 -2 39 -9 75 -15 80 -7 7 -9 -2
-4 -30 3 -22 7 -87 7 -145 2 -77 4 -93 9 -60 8 60 15 33 29 -125 19 -204 60
-418 141 -740 90 -356 108 -454 117 -618 l6 -118 228 1 228 1 -1 42 c0 23 3
85 6 137 4 61 2 116 -5 154 -9 42 -9 61 -2 63 6 2 9 12 7 21 -1 9 -6 35 -10
57 -6 37 -8 38 -14 15 -6 -20 -8 -15 -9 23 -1 32 3 46 10 41 12 -7 8 90 -4
102 -4 4 -2 13 4 21 9 9 8 13 0 13 -12 0 -14 32 -5 66 5 20 7 20 35 -9 27 -26
29 -33 20 -59 -21 -61 27 -200 84 -244 43 -32 47 -46 33 -98 -9 -36 -15 -42
-33 -38 -30 5 -45 -18 -52 -82 -8 -79 8 -112 54 -114 27 -1 36 3 40 19 5 19 8
17 35 -15 15 -19 37 -38 48 -41 12 -4 22 -19 26 -41 6 -32 9 -34 45 -34 37 0
39 2 33 25 l-6 25 119 0 c110 0 121 -2 155 -25 28 -19 49 -25 90 -25 l53 1
-46 18 c-26 10 -57 25 -69 34 -22 15 -22 16 21 19 29 2 52 -3 69 -14 14 -9 39
-20 55 -23 29 -6 29 -6 11 9 -19 15 -17 16 30 16 84 0 82 16 -3 25 -90 9 -137
9 -322 0 -190 -10 -278 11 -302 73 -22 57 -30 143 -19 199 l12 55 111 -8 c164
-12 393 -6 435 12 47 19 35 27 -22 14 -54 -12 -344 -15 -461 -4 -104 9 -144
33 -174 104 -13 29 -25 76 -28 104 -7 66 5 78 67 66 114 -22 268 -7 450 44 47
13 111 29 144 36 32 6 54 16 50 20 -11 11 -96 -4 -199 -35 -140 -42 -214 -55
-310 -55 -213 0 -265 40 -281 215 -4 42 -2 65 8 77 9 13 82 31 268 67 140 28
285 55 322 61 77 12 98 19 98 31 0 13 -26 11 -115 -11 -44 -10 -154 -33 -245
-50 -91 -17 -196 -38 -234 -46 -108 -22 -140 -19 -170 16 -41 49 -67 170 -46
219 15 38 71 62 225 95 66 15 129 29 140 32 121 31 371 76 451 81 92 5 106 4
148 -17 100 -48 176 -126 176 -180 0 -11 5 -20 10 -20 6 0 10 10 10 22 0 21 0
21 26 -3 14 -13 43 -54 65 -90 33 -58 75 -111 271 -354 22 -27 68 -97 101
-153 34 -57 63 -99 65 -93 4 13 -41 96 -110 200 -27 40 -47 75 -45 77 12 12
106 -81 152 -150 77 -117 120 -214 156 -356 28 -114 31 -135 26 -235 -3 -60
-8 -118 -12 -127 -5 -13 -2 -18 9 -18 24 0 31 42 31 175 0 105 -4 134 -33 233
-65 229 -214 456 -342 523 l-45 23 127 22 c70 13 145 28 165 33 21 6 63 11 93
11 78 0 158 -49 266 -164 46 -49 84 -93 84 -98 0 -6 -26 13 -58 40 -32 28 -93
70 -136 93 -75 40 -79 41 -154 37 -157 -9 -213 -75 -141 -164 18 -22 43 -64
56 -94 14 -30 35 -77 48 -105 96 -211 109 -261 109 -428 l0 -137 793 0 792 0
11 40 c5 22 14 57 20 78 19 74 31 228 24 326 -11 189 -57 322 -201 586 -38 70
-112 292 -128 385 -17 96 -87 329 -140 465 -10 25 -66 146 -125 270 -60 124
-137 293 -173 375 -36 83 -100 224 -142 315 -102 219 -128 293 -176 489 -61
247 -85 304 -165 381 -36 35 -84 95 -107 134 -56 96 -123 261 -132 324 -7 56
-43 110 -98 149 -19 13 -84 36 -156 53 -68 17 -170 48 -226 71 -102 39 -148
70 -286 194 -20 18 -58 40 -85 50 -195 71 -264 118 -450 302 -78 77 -117 100
-196 117 -24 5 -26 9 -18 34 4 15 18 50 30 77 21 47 30 131 22 205 -4 37 20
109 52 157 15 23 32 57 36 75 5 18 15 51 24 73 23 60 19 139 -10 220 -15 42
-27 102 -30 150 -3 44 -14 138 -25 209 -24 164 -24 234 1 321 26 91 26 170 0
210 -11 17 -20 44 -20 61 0 21 -7 36 -21 46 l-21 14 33 98 34 97 103 39 c165
63 380 171 452 229 231 186 467 613 447 810 -7 65 -28 96 -91 135 -41 26 -60
31 -135 34 -84 4 -90 3 -226 -48 -77 -28 -181 -74 -232 -102 -97 -53 -253
-184 -331 -277 -24 -28 -49 -51 -56 -51 -7 0 -21 -9 -31 -20 -18 -19 -19 -18
-52 63 -76 180 -84 208 -94 321 -25 275 -115 502 -252 640 -85 84 -265 221
-324 247 -48 21 -174 35 -203 22z m386 -205 c119 -95 175 -161 230 -271 53
-103 104 -292 115 -427 11 -121 10 -116 135 -447 30 -79 54 -147 54 -152 0 -6
-12 -6 -32 0 -55 16 -382 22 -528 10 -262 -21 -349 -31 -467 -55 -71 -15 -120
-21 -124 -15 -3 5 -27 80 -53 167 -26 86 -61 184 -78 217 -42 81 -116 165
-207 235 -128 97 -124 80 -53 222 83 164 110 301 81 398 -16 52 -77 132 -119
152 -21 11 -28 19 -19 22 8 2 30 9 49 16 19 6 81 14 136 17 85 5 113 2 170
-15 38 -12 111 -30 162 -41 52 -11 113 -30 135 -41 23 -11 60 -24 83 -28 48
-11 113 -4 93 9 -10 6 -3 9 19 9 18 0 42 5 53 10 21 12 26 50 7 51 -10 0 -10
2 0 6 6 2 12 15 12 27 0 12 -6 28 -12 36 -25 27 49 -25 158 -112z m1519 -658
c63 -30 79 -64 72 -154 -12 -181 -168 -468 -357 -658 -95 -95 -100 -99 -261
-176 -264 -129 -466 -195 -679 -222 -119 -16 -367 0 -354 22 3 5 -6 6 -22 2
-19 -5 -25 -4 -20 5 6 9 0 10 -21 6 -22 -5 -25 -4 -13 5 12 9 9 10 -13 5 -19
-4 -26 -2 -22 4 3 7 0 8 -9 5 -9 -3 -16 -1 -16 6 0 6 -4 9 -10 5 -21 -13 -250
116 -391 221 -36 27 -74 54 -85 61 -10 7 33 -10 96 -38 308 -136 463 -187 589
-194 36 -2 111 -11 166 -20 55 -8 141 -15 190 -15 80 0 103 5 215 44 171 59
357 137 438 182 65 36 273 228 343 316 l29 36 -37 -19 c-21 -11 -45 -23 -53
-28 -8 -4 -35 -17 -60 -28 -25 -11 -63 -28 -85 -39 -22 -10 -45 -19 -51 -19
-6 0 -22 -6 -35 -12 -37 -18 -99 -32 -115 -26 -8 3 -23 -2 -34 -12 -11 -10
-34 -19 -52 -21 -18 -2 -44 -13 -58 -24 -35 -29 -101 -59 -152 -70 -24 -5 -74
-20 -113 -34 -67 -24 -224 -57 -330 -71 -27 -4 -93 -17 -145 -29 -52 -13 -113
-27 -134 -31 -29 -5 -36 -9 -25 -16 8 -5 10 -9 4 -9 -5 0 -16 4 -24 9 -11 7 0
13 40 24 113 31 237 57 314 68 117 15 261 48 330 73 33 13 83 28 110 35 28 6
61 20 75 31 14 11 45 31 70 46 111 67 330 263 330 295 0 18 -17 8 -80 -48 -95
-82 -147 -113 -193 -113 -83 0 -147 57 -147 131 0 46 33 150 65 205 77 132
151 187 337 250 202 69 294 77 383 34z m-2433 -1147 c92 -9 165 -20 162 -24
-3 -5 -14 -9 -25 -9 -24 0 -89 -41 -89 -57 0 -6 -26 -40 -57 -74 -48 -52 -72
-89 -58 -89 2 0 72 34 156 75 149 74 152 75 229 75 69 0 84 -4 143 -35 104
-55 213 -90 282 -90 49 0 60 3 63 18 2 9 -1 17 -7 17 -6 0 -11 -7 -11 -15 0
-19 -4 -19 -82 1 -66 16 -164 69 -233 124 l-40 32 30 -6 c132 -26 300 -40 478
-40 108 0 197 -3 197 -7 0 -22 -24 -63 -58 -99 -77 -82 -77 -78 -19 -225 52
-131 116 -231 226 -356 73 -82 87 -149 50 -227 -30 -61 -84 -98 -169 -113 -66
-12 -75 -11 -157 15 -121 36 -223 32 -223 -9 0 -27 -46 -17 -74 16 -50 59 -19
153 65 199 41 22 88 60 76 60 -19 0 -108 -54 -134 -82 -75 -78 -72 -182 7
-223 40 -21 89 -19 177 7 73 21 77 21 123 5 52 -19 147 -22 198 -8 44 13 117
75 136 115 21 44 21 128 0 169 -9 18 -34 50 -55 72 -62 64 -188 249 -215 316
-29 70 -26 86 5 36 12 -19 29 -41 38 -48 10 -8 -4 16 -30 53 -45 63 -60 97
-36 83 6 -4 17 1 25 11 9 11 13 14 9 7 -11 -23 126 -46 140 -23 4 6 -15 10
-49 10 -41 0 -61 5 -74 18 -31 31 -14 45 20 17 33 -28 69 -32 88 -10 15 18 7
19 -21 4 -15 -7 -24 -7 -35 2 -21 18 -17 27 11 21 15 -2 25 0 25 7 0 6 11 11
25 11 20 0 24 5 22 23 -2 20 3 22 44 25 51 3 75 -14 65 -46 -7 -20 -76 -72
-96 -72 -5 0 -10 -4 -10 -10 0 -19 26 -9 79 31 38 29 57 37 64 30 6 -6 22 -10
36 -10 24 2 24 2 4 6 -31 6 -79 63 -61 74 34 21 -85 31 -166 14 -86 -18 -112
-35 -132 -86 -9 -22 -18 -38 -21 -35 -2 2 3 21 11 41 19 45 19 48 4 39 -8 -4
-10 -3 -5 2 5 5 9 7 10 5 1 -2 22 6 46 18 55 28 127 51 164 51 16 0 26 4 22 9
-7 13 -67 3 -130 -20 -61 -23 -58 -23 -46 -1 15 29 112 90 152 97 26 5 56 0
100 -15 35 -12 69 -24 76 -25 8 -3 8 -14 -2 -42 -15 -42 -10 -86 11 -104 8 -6
14 -21 14 -33 1 -11 7 -32 15 -46 18 -32 18 -136 0 -220 -20 -90 -18 -193 5
-340 11 -69 20 -165 20 -215 0 -51 4 -84 8 -77 14 21 43 -65 49 -148 6 -68 5
-74 -10 -62 -14 12 -16 9 -19 -25 -2 -23 -8 -37 -15 -36 -8 2 -15 -16 -19 -47
-6 -45 -8 -48 -20 -33 -12 16 -13 15 -14 -12 0 -24 -5 -31 -21 -32 -18 -2 -20
2 -14 25 22 81 23 92 9 92 -8 0 -11 6 -7 17 4 11 3 14 -5 9 -7 -4 -12 -16 -12
-26 0 -13 -5 -17 -15 -14 -15 6 -21 -26 -16 -84 1 -13 -2 -21 -7 -18 -5 3 1
-21 14 -54 31 -75 46 -194 34 -258 -12 -63 -49 -144 -94 -207 -40 -55 -43 -55
-21 -2 8 20 15 53 14 74 0 36 -1 36 -10 13 -23 -56 -61 -127 -83 -154 l-24
-28 4 28 c4 28 4 28 -7 6 -12 -21 -123 -82 -179 -98 -25 -6 -25 -6 3 16 15 12
26 24 23 27 -7 7 -63 -25 -114 -65 l-42 -33 -56 30 c-31 17 -60 28 -65 25 -5
-3 -20 3 -34 12 -14 9 -25 12 -25 6 0 -6 19 -23 43 -37 38 -23 39 -25 12 -19
-16 3 -45 15 -63 25 -18 11 -39 19 -46 19 -8 0 -19 12 -25 28 -13 29 -56 82
-67 82 -3 0 1 -12 10 -27 17 -27 16 -27 -8 2 -46 54 -37 20 14 -52 28 -39 50
-74 50 -77 0 -22 -28 8 -99 103 -78 104 -111 142 -111 126 0 -4 13 -25 29 -48
16 -23 32 -53 36 -67 5 -19 4 -21 -4 -10 -15 22 -24 5 -11 -20 23 -43 -1 -31
-62 31 -34 35 -66 63 -70 62 -4 -2 -15 11 -25 27 -18 31 -33 39 -33 18 0 -7
31 -43 69 -80 l69 -67 -49 25 c-56 28 -131 120 -150 185 -7 21 -16 39 -21 39
-16 0 -7 -36 26 -97 35 -66 33 -73 -13 -48 -51 26 -99 92 -116 159 l-15 61 4
-55 5 -55 -29 55 c-16 30 -34 78 -41 107 -7 29 -16 50 -20 48 -4 -3 -3 -20 2
-37 5 -17 7 -33 5 -36 -6 -6 -47 108 -61 173 -7 33 -13 48 -14 34 -1 -14 5
-47 13 -72 8 -26 10 -45 6 -42 -17 11 -60 174 -60 228 0 31 -5 59 -11 63 -8 4
-10 -9 -8 -45 3 -43 2 -49 -9 -34 -80 114 -150 169 -220 175 -33 2 -42 12 -19
21 7 4 3 8 -10 12 -13 4 -20 11 -17 16 3 5 -2 17 -11 26 -13 13 -16 30 -13 75
5 64 -8 79 -17 21 -12 -67 -15 -60 -11 22 5 79 4 80 -10 40 l-14 -40 4 65 c6
85 -15 285 -26 250 -4 -14 -6 9 -3 55 3 52 1 73 -5 60 -16 -36 -12 27 5 75 8
24 13 45 11 47 -3 4 -21 -40 -40 -97 -2 -8 -5 -1 -6 15 -1 27 -2 28 -11 10 -7
-15 -8 -7 -5 30 3 33 19 79 50 139 25 49 44 91 42 93 -8 9 -73 -107 -93 -167
-12 -36 -23 -56 -23 -45 0 11 -13 56 -28 100 -25 72 -47 112 -98 183 -16 21
-16 24 4 45 30 33 62 90 62 111 0 13 -8 7 -26 -20 -34 -52 -86 -95 -100 -83
-7 6 8 28 47 67 31 33 65 75 74 93 17 34 17 33 -19 -8 -20 -22 -58 -60 -85
-83 -49 -41 -50 -41 -81 -25 -16 8 -30 21 -30 28 1 29 59 114 99 144 46 36 67
37 36 3 -10 -11 -15 -20 -11 -20 16 0 62 30 85 54 18 19 38 27 84 32 66 8 102
33 94 65 -4 16 0 19 32 19 l37 0 -46 -48 c-76 -79 -113 -139 -115 -188 -2 -51
12 -49 21 4 3 20 13 48 22 62 29 47 97 122 136 151 46 33 34 33 358 2z m-827
-323 c61 -29 136 -96 172 -152 35 -55 103 -232 103 -269 0 -44 40 -184 60
-211 24 -33 26 -108 6 -185 -15 -55 -12 -65 10 -35 12 15 13 12 14 -25 0 -23
4 -53 10 -67 13 -34 -3 -34 -35 0 -29 31 -55 105 -55 156 0 35 -2 38 -19 28
-11 -5 -37 -10 -59 -10 -59 0 -101 34 -147 121 -22 41 -71 113 -109 159 -89
109 -139 213 -144 297 -6 89 5 148 34 182 38 45 81 48 159 11z m-92 -608 c4
-87 11 -125 39 -204 19 -54 34 -98 32 -98 -10 0 -56 99 -71 150 -9 35 -19 58
-21 52 -2 -6 -11 -3 -22 8 -23 23 -34 104 -25 187 l7 65 28 -27 c26 -24 28
-33 33 -133z m365 -218 c2 -10 15 -45 30 -77 20 -45 33 -61 59 -72 18 -8 33
-21 33 -29 0 -8 11 -27 25 -42 30 -33 32 -50 5 -57 -20 -5 -25 -26 -21 -87 l2
-25 -26 30 c-48 57 -50 65 -13 65 l33 1 -30 14 c-33 15 -53 31 -73 56 -11 14
-7 16 40 11 l53 -4 -45 46 c-24 25 -41 46 -37 46 5 0 -3 15 -16 33 -28 36 -57
91 -57 106 0 18 35 4 38 -15z m301 -334 c101 -64 143 -139 166 -301 9 -57 20
-132 26 -165 24 -137 31 -558 14 -716 l-7 -58 -175 0 -175 0 6 24 c10 42 36
293 46 450 12 186 -17 645 -46 739 -3 10 -3 30 1 44 6 24 9 25 52 19 26 -3 67
-19 92 -36z m288 -438 c73 -128 143 -212 195 -233 23 -10 52 -18 64 -18 11 -1
33 -14 49 -31 16 -16 34 -30 39 -30 9 0 43 -16 149 -68 4 -2 7 3 7 12 0 22 13
20 35 -4 14 -16 79 -52 138 -79 5 -2 4 7 -3 19 -14 27 -8 35 17 22 11 -6 44
-10 74 -9 30 0 69 -5 87 -12 27 -12 33 -11 49 5 19 18 82 48 124 58 l27 6 -18
-63 c-10 -34 -24 -89 -31 -122 l-14 -60 -65 -33 c-82 -41 -228 -72 -341 -72
l-86 0 -89 56 c-179 112 -430 317 -438 357 -3 12 -12 101 -21 197 -9 96 -19
186 -21 200 -5 24 -5 24 10 6 9 -11 37 -57 63 -104z m1071 -569 c-31 -34 -48
-65 -48 -90 0 -17 -83 -82 -140 -110 l-25 -13 25 6 c14 3 44 17 67 29 24 13
45 19 48 14 6 -8 -30 -67 -50 -81 -6 -5 -4 -8 4 -8 32 0 -42 -57 -97 -75 -31
-9 -68 -26 -81 -36 -32 -26 -77 -25 -84 1 -3 11 -1 18 4 15 5 -3 25 5 45 19
20 13 63 33 95 43 32 10 59 21 59 26 0 11 -10 9 -86 -16 -51 -16 -83 -21 -124
-17 l-55 5 65 17 c63 16 144 47 127 48 -4 0 -38 -6 -75 -14 -89 -19 -147 -25
-160 -17 -10 6 -42 72 -42 86 0 3 24 5 53 5 64 0 213 31 288 59 96 37 207 125
172 138 -7 3 -13 14 -13 26 0 21 1 20 27 -6 l27 -27 -26 -27z m-2882 -142 c-3
-5 -37 -27 -76 -50 -38 -23 -82 -58 -97 -77 l-27 -36 22 -18 c26 -22 27 -21
-62 -54 -80 -30 -166 -43 -192 -28 -15 8 -10 14 37 37 78 39 275 157 334 199
48 35 72 45 61 27z m416 -375 c37 -93 82 -212 99 -265 57 -175 108 -254 173
-267 51 -9 150 37 335 155 l24 15 -6 -60 c-3 -33 -13 -87 -22 -120 -8 -32 -20
-123 -27 -201 l-11 -143 -41 -20 c-25 -12 -83 -66 -150 -140 -63 -68 -122
-124 -138 -129 -16 -6 -41 -19 -57 -30 -15 -11 -63 -29 -106 -41 -89 -24 -119
-38 -158 -75 -32 -30 -47 -26 -47 15 0 38 -33 75 -310 352 -199 199 -235 231
-291 256 -35 16 -73 39 -84 52 -11 12 -37 31 -59 42 -28 14 -35 23 -27 31 6 6
11 18 11 27 0 11 -5 9 -18 -8 l-18 -23 -54 25 c-30 14 -64 26 -75 26 -11 0
-42 7 -69 15 -85 26 -278 15 -347 -19 -29 -14 -29 -14 -23 12 18 74 52 118
123 162 l71 42 117 -6 c65 -3 139 -8 164 -12 65 -8 115 15 137 63 19 43 27 53
133 161 42 42 107 96 145 120 38 24 92 57 119 75 28 17 74 41 103 53 55 23
166 100 211 145 l26 27 40 -71 c21 -39 70 -148 107 -241z m1580 235 c19 -10
33 -31 49 -75 23 -63 70 -151 152 -284 60 -96 76 -144 56 -169 -11 -13 -11
-15 0 -9 32 20 -13 -68 -72 -139 l-24 -29 -60 51 c-34 30 -71 74 -87 105 -52
97 -102 135 -213 162 -292 70 -340 89 -365 146 -14 32 -28 39 -28 15 0 -22 24
-67 46 -87 11 -9 102 -38 204 -63 102 -26 201 -56 220 -65 42 -22 78 -60 112
-120 14 -25 58 -77 98 -116 92 -90 99 -121 50 -237 -32 -78 -68 -130 -76 -112
-21 49 -94 140 -143 178 -67 53 -73 56 -231 104 -167 51 -195 69 -272 175 -33
44 -21 -13 15 -72 36 -62 27 -57 271 -132 178 -54 252 -110 325 -248 29 -54
31 -63 21 -98 -16 -60 -133 -221 -161 -222 -8 0 -34 16 -57 36 -33 28 -42 42
-42 68 0 43 9 50 31 23 10 -12 18 -17 19 -10 0 6 -4 15 -10 18 -21 13 -9 24
16 15 32 -12 64 -13 64 -1 0 17 -177 64 -357 95 -18 3 -58 26 -90 50 -31 25
-59 43 -62 40 -7 -7 59 -72 98 -96 l34 -22 -41 -20 c-42 -20 -54 -36 -28 -36
7 0 34 11 60 25 55 29 76 30 176 6 54 -13 74 -22 71 -32 -18 -73 -15 -82 50
-148 l63 -65 62 68 c78 87 124 163 131 218 4 24 18 58 33 78 15 19 39 64 54
99 23 52 28 77 28 143 l-1 80 45 54 c24 30 44 60 44 67 1 7 7 1 15 -13 17 -29
19 -19 6 30 -8 28 -8 32 2 16 24 -37 49 -67 54 -63 2 3 -7 21 -21 42 -41 60
-79 200 -72 263 11 95 58 171 129 208 27 15 29 14 63 -22 35 -39 42 -39 23 -1
-8 17 -5 16 15 -6 30 -33 32 -57 10 -141 -12 -47 -14 -80 -9 -141 17 -177 16
-183 -113 -405 -82 -142 -160 -308 -173 -370 -16 -75 -44 -102 -234 -231 -88
-59 -181 -124 -208 -144 l-47 -36 31 58 c18 32 38 69 46 81 8 13 12 26 9 29
-3 3 -27 -30 -53 -72 -26 -43 -67 -105 -90 -139 -23 -34 -58 -84 -77 -112 -42
-61 -69 -80 -156 -110 -46 -16 -59 -25 -47 -30 16 -6 45 -2 81 12 11 4 9 -7
-11 -48 -14 -29 -36 -81 -49 -115 -13 -35 -55 -126 -94 -203 l-70 -140 -48 0
c-66 0 -118 17 -152 48 -28 25 -31 35 -44 152 -8 69 -17 217 -19 329 l-4 204
27 -59 c25 -55 127 -181 137 -170 2 2 -12 25 -32 51 -103 135 -131 275 -101
502 9 67 23 206 31 310 14 176 36 306 55 327 5 5 13 -7 18 -25 10 -33 10 -33
11 -6 1 15 -8 45 -18 65 -24 48 -41 138 -41 222 0 55 4 72 25 100 26 35 61
128 52 137 -4 3 -13 -10 -21 -28 l-14 -34 -1 58 c-2 101 32 147 137 188 77 30
170 37 477 35 199 -1 266 -4 287 -15z m2454 -82 c134 -35 163 -48 198 -86 21
-23 23 -29 11 -36 -30 -16 -45 -69 -60 -204 -18 -175 -26 -213 -69 -346 -19
-59 -38 -132 -41 -162 -9 -68 -21 -78 -30 -26 -13 78 23 79 -515 -18 -267 -49
-487 -87 -489 -85 -11 9 -62 185 -77 260 -22 118 -15 181 27 277 38 86 55 94
76 33 7 -22 21 -48 30 -58 28 -31 118 -67 205 -82 45 -8 146 -30 223 -51 133
-34 147 -36 272 -33 123 3 133 5 157 27 53 50 44 102 -68 352 -31 70 -56 130
-56 134 0 4 -18 47 -40 96 -22 49 -40 93 -40 98 0 4 38 -7 84 -25 46 -19 137
-48 202 -65z m275 -283 c68 -179 141 -307 210 -370 81 -73 89 -94 172 -416 40
-153 66 -223 162 -430 37 -80 97 -215 135 -300 37 -85 119 -263 183 -395 63
-132 133 -289 155 -350 45 -123 112 -353 112 -382 0 -35 91 -327 119 -383 16
-30 56 -109 90 -174 33 -66 61 -123 61 -128 0 -5 -10 -2 -22 6 -22 16 -39 45
-97 163 -33 70 -51 83 -113 83 -68 1 -116 30 -218 132 -52 52 -113 107 -135
121 -46 30 -173 77 -208 77 -13 0 -37 4 -53 9 -16 5 -45 12 -66 16 -33 5 -38
10 -52 52 -20 58 -20 86 -2 122 29 54 143 140 167 125 6 -3 23 5 37 19 15 14
46 33 70 42 43 18 106 80 115 115 3 11 -1 27 -8 37 -13 17 -17 15 -57 -24 -64
-63 -203 -143 -247 -143 -55 0 -93 14 -147 55 -58 44 -150 147 -170 190 -8 17
-87 278 -176 580 l-162 550 -4 241 c-3 190 0 254 12 300 29 114 46 277 44 409
-3 130 8 191 33 183 6 -2 33 -61 60 -132z m-5262 88 c-15 -25 -24 -62 -30
-122 -5 -47 -14 -91 -19 -96 -6 -6 -46 -5 -112 2 -57 7 -117 12 -135 12 -17 0
-34 4 -37 8 -15 25 85 166 138 194 11 6 61 16 111 23 49 7 94 13 98 14 5 0 -1
-15 -14 -35z m3861 -299 c-21 -79 -24 -123 -10 -145 7 -11 10 6 11 55 0 39 5
79 10 90 7 15 7 11 3 -14 -4 -23 -3 -31 5 -27 6 4 11 0 11 -8 0 -9 -4 -16 -10
-16 -14 0 -13 -101 2 -172 12 -59 28 -81 22 -30 -2 15 3 5 11 -23 8 -27 13
-56 10 -63 -3 -8 0 -10 6 -6 7 4 9 0 5 -13 -3 -11 0 -39 9 -62 17 -49 24 -44
-99 -66 -95 -17 -105 -15 -106 30 -1 32 -38 172 -39 148 -1 -21 13 -98 29
-160 4 -18 5 -35 0 -38 -4 -3 -11 7 -15 23 -6 23 -8 24 -14 8 -12 -33 -41 78
-40 153 l2 66 8 -74 c5 -41 10 -75 11 -77 2 -1 3 60 3 136 0 117 3 141 18 157
9 11 17 27 17 36 0 17 146 175 154 167 2 -3 -4 -36 -14 -75z m-4165 -267 c4
17 12 32 17 32 6 0 7 -11 4 -24 -3 -14 -2 -27 3 -30 5 -3 11 8 15 24 3 17 12
30 19 30 42 0 170 -43 221 -74 33 -20 65 -36 72 -36 9 0 9 -8 -3 -30 -8 -18
-12 -38 -8 -48 6 -13 10 -8 17 21 6 20 14 37 18 37 5 0 18 -15 30 -34 11 -19
36 -48 55 -65 19 -17 35 -35 35 -41 0 -6 8 -9 18 -5 26 8 65 -25 112 -95 22
-32 56 -68 77 -81 21 -12 46 -30 55 -38 23 -22 39 -33 70 -51 55 -32 97 -78
101 -112 4 -30 5 -31 12 -10 10 30 23 28 31 -5 16 -71 22 -89 23 -65 1 29 17
28 37 -3 9 -13 25 -27 35 -30 17 -6 19 -12 14 -38 -4 -18 -19 -53 -32 -79 -22
-39 -29 -46 -44 -38 -9 6 -71 9 -136 8 -101 -1 -204 9 -378 38 -45 7 92 -57
215 -101 108 -38 158 -63 197 -98 l23 -20 -27 -46 c-50 -86 -206 -326 -237
-365 -68 -84 -99 -116 -108 -110 -16 10 -2 84 21 115 24 32 26 39 11 39 -28 0
-199 -315 -182 -332 17 -17 80 11 135 60 64 56 92 95 150 203 45 85 197 327
284 454 26 38 84 121 127 185 43 63 96 127 116 142 21 16 67 34 106 43 133 30
185 64 334 217 129 132 160 156 160 123 0 -8 -4 -15 -9 -15 -5 0 -20 -17 -32
-37 -21 -33 -24 -53 -27 -168 -3 -90 1 -159 13 -225 9 -52 20 -198 25 -325 13
-328 49 -529 141 -780 66 -179 158 -318 238 -359 47 -25 126 -32 159 -15 148
76 242 227 286 457 20 105 40 456 31 552 -9 98 -37 235 -69 335 -29 89 -30 95
-18 95 15 0 80 -250 96 -368 39 -281 9 -620 -73 -818 -72 -176 -120 -237 -211
-269 -156 -55 -306 38 -410 253 -29 59 -63 143 -77 187 -13 44 -33 109 -44
145 -25 80 -44 222 -59 445 -6 94 -15 199 -19 235 -8 59 -8 55 -9 -55 -1 -131
-15 -238 -38 -294 -20 -48 -118 -147 -235 -236 -119 -91 -211 -200 -249 -295
-32 -80 -250 -311 -317 -336 -43 -17 -46 -17 -86 4 -77 38 -152 107 -192 176
-37 63 -40 66 -84 71 -84 10 -134 26 -167 53 -29 24 -33 33 -33 80 -1 29 4 62
9 73 7 11 7 19 1 19 -13 0 -40 -74 -50 -138 -4 -29 -17 -62 -28 -75 -12 -12
-41 -53 -65 -92 -59 -93 -152 -178 -212 -195 -65 -18 -125 0 -170 51 -31 34
-41 56 -59 136 -3 16 5 35 26 62 87 107 164 201 297 361 306 366 414 510 395
528 -4 4 -14 -4 -23 -18 -22 -35 -209 -216 -261 -252 -55 -39 -185 -95 -237
-104 -36 -5 -45 -2 -77 26 -20 17 -48 56 -63 86 -25 51 -28 68 -33 217 -3 89
-3 203 0 252 37 511 34 643 -17 786 -37 103 -30 139 28 139 18 0 28 -5 28 -15
0 -8 5 -15 10 -15 6 0 10 6 10 14 0 10 19 17 63 23 l62 8 6 -35 6 -35 8 33z
m5283 -305 c13 -8 32 -35 43 -61 24 -55 69 -217 69 -248 0 -27 -28 -52 -66
-60 -29 -6 -30 -4 -52 63 -12 37 -25 86 -28 108 -3 22 -17 75 -31 117 -30 89
-26 112 14 102 16 -3 38 -13 51 -21z m-603 -73 c7 -14 16 -42 20 -63 6 -33 5
-37 -13 -37 -15 0 -22 11 -31 46 -8 31 -15 44 -22 37 -7 -7 -5 -34 6 -81 l16
-71 30 11 c17 6 32 8 34 6 2 -2 14 -33 27 -68 19 -52 27 -65 45 -66 12 -1 24
5 27 12 3 8 15 14 26 14 25 0 25 7 -1 72 -11 29 -29 94 -38 145 -20 102 -19
103 43 103 45 0 82 -41 89 -100 3 -25 20 -79 37 -120 22 -52 29 -84 26 -105
-6 -32 -60 -105 -77 -105 -6 0 -17 16 -24 35 -8 19 -24 39 -36 45 -17 10 -21
8 -26 -9 -3 -11 -10 -18 -15 -15 -16 10 -28 -17 -29 -66 -1 -25 -4 -36 -6 -25
-7 26 -25 37 -35 22 -6 -9 -15 -8 -39 6 -17 9 -35 15 -40 11 -5 -3 -9 1 -9 8
0 8 -7 23 -15 34 -13 17 -13 14 -1 -29 8 -27 18 -77 21 -111 6 -57 5 -65 -17
-91 -21 -24 -27 -26 -47 -16 -19 11 -26 10 -42 -5 -10 -9 -19 -25 -19 -35 0
-27 -11 -50 -21 -43 -16 10 -9 71 12 97 14 19 17 31 11 44 -5 10 -15 42 -22
71 -6 28 -16 52 -21 52 -12 0 -11 -9 5 -64 14 -46 14 -48 -7 -55 -30 -12 -33
-8 -53 52 -15 48 -42 92 -51 83 -2 -2 13 -40 32 -86 20 -45 35 -84 33 -86 -3
-2 -19 -7 -36 -10 -29 -6 -32 -4 -32 19 0 14 -7 27 -15 31 -12 4 -15 -2 -15
-28 0 -31 -9 -42 -35 -44 -5 0 -9 5 -7 13 7 34 -18 20 -37 -20 -12 -26 -31
-49 -44 -54 -13 -5 -38 -25 -55 -45 -37 -42 -40 -40 -12 6 26 44 26 89 -1 106
-12 7 -22 12 -24 10 -2 -2 1 -27 6 -56 8 -42 7 -57 -5 -73 -14 -21 -15 -21
-32 17 l-16 39 -11 -35 c-9 -31 -11 -32 -15 -12 -3 22 -4 23 -18 5 -13 -16
-13 -16 -5 8 7 19 5 44 -4 80 -18 66 -76 221 -82 215 -2 -2 7 -45 21 -95 13
-50 21 -92 18 -94 -49 -26 -54 -16 -83 159 -11 69 -29 154 -40 190 -11 36 -19
68 -17 70 3 2 15 5 27 6 21 3 28 -7 58 -80 20 -46 37 -82 38 -80 6 6 -22 144
-33 165 -7 12 -12 29 -12 38 0 14 4 14 29 -4 16 -12 36 -21 45 -21 16 0 17 -6
82 -235 42 -149 55 -185 65 -185 6 0 6 7 0 18 -5 10 -24 74 -41 142 -17 69
-35 132 -40 142 -13 24 -1 87 19 92 9 2 35 8 59 11 39 6 42 5 42 -17 0 -26 42
-198 59 -242 24 -60 22 -14 -3 77 -31 113 -33 140 -9 135 9 -2 24 -24 34 -53
l17 -50 1 52 c1 47 3 53 26 59 15 4 25 13 25 24 0 10 7 23 16 31 20 16 24 10
67 -101 22 -59 33 -78 35 -62 2 13 -10 51 -26 85 -17 34 -28 66 -25 70 3 5 27
6 54 2 52 -7 55 -5 39 25 -9 16 -6 19 21 18 21 -1 33 -7 39 -22 5 -13 8 8 7
58 -2 76 -1 81 23 93 21 10 27 9 43 -5 11 -9 25 -28 32 -42z m384 -17 c1 -7
-8 -13 -18 -13 -11 0 -22 -4 -25 -8 -8 -13 16 -92 28 -92 23 0 34 16 31 43 -2
15 -2 27 1 27 5 0 35 -59 45 -90 6 -17 8 -3 5 42 -3 62 -2 69 20 83 22 14 24
14 38 -7 8 -13 22 -50 30 -83 17 -64 53 -163 65 -180 5 -5 13 -30 19 -54 9
-38 8 -49 -11 -87 -31 -61 -47 -57 -47 11 0 34 -4 55 -11 55 -8 0 -9 -13 -5
-40 6 -37 5 -40 -17 -40 -20 0 -25 7 -33 48 -9 45 -10 47 -44 48 -73 1 -70 -2
-111 99 -19 47 -60 192 -66 231 l-6 43 42 11 c22 6 41 16 42 23 1 14 27 -52
28 -70z m-1255 -54 c32 -37 33 -65 4 -74 -16 -6 -26 -1 -39 16 -10 13 -21 21
-25 17 -13 -13 6 -57 33 -75 14 -10 45 -36 68 -58 37 -35 43 -47 49 -96 8 -63
-16 -169 -38 -169 -17 0 -80 68 -101 109 -14 28 -15 35 -3 42 26 17 44 9 57
-26 19 -53 34 -44 29 16 -5 48 -9 54 -70 109 -95 86 -109 139 -53 196 32 32
58 30 89 -7z m-209 -311 c8 -28 13 -54 10 -56 -11 -11 -191 -49 -199 -42 -4 5
-9 32 -10 61 l-1 53 60 17 c33 10 74 18 92 18 30 1 33 -2 48 -51z m25 -102 c0
-13 -7 -27 -16 -30 -8 -3 -12 -10 -9 -16 4 -6 11 -7 17 -4 12 8 28 -13 28 -37
0 -13 -19 -18 -97 -27 -54 -6 -101 -8 -104 -4 -4 4 -10 21 -13 38 -7 31 -6 31
76 66 102 44 118 46 118 14z m1716 -115 c-10 -15 5 -40 19 -35 14 6 30 -30 20
-46 -6 -10 42 -90 55 -90 10 0 30 -47 30 -70 0 -11 -7 -20 -15 -20 -9 0 -18
-7 -21 -15 -9 -23 -32 0 -55 52 -10 24 -23 43 -29 43 -5 0 -10 7 -10 16 0 9
-10 33 -22 53 -28 44 -29 69 -3 97 20 22 41 32 31 15z m-1678 -42 c7 -30 7
-41 -1 -44 -56 -19 -181 -45 -188 -38 -4 4 -11 25 -14 46 -7 33 -5 37 14 37
12 0 21 -6 21 -15 0 -24 30 -17 40 10 11 29 25 32 38 8 12 -21 42 -10 42 17 0
13 7 20 19 20 13 0 21 -11 29 -41z m21 -97 c5 -9 12 -34 16 -54 7 -36 6 -37
-32 -47 -124 -32 -158 -40 -161 -37 -2 2 -6 29 -9 59 -6 61 -5 63 66 82 68 19
109 18 120 -3z m61 -241 c0 -11 5 -23 10 -26 16 -10 12 -51 -7 -67 -10 -8 -47
-22 -83 -31 -56 -14 -68 -14 -86 -2 -43 28 -38 96 7 110 39 13 53 -35 17 -53
-19 -9 -20 -11 -5 -11 26 -1 110 20 122 30 14 14 -22 11 -45 -3 -22 -14 -26
-12 -35 24 -6 24 -3 28 27 37 55 16 78 13 78 -8z m1194 -20 c3 -4 16 -6 30 -4
27 5 46 -15 25 -27 -7 -5 -20 -5 -29 0 -11 6 -23 1 -40 -18 -14 -14 -19 -22
-11 -17 11 6 13 2 8 -23 -4 -18 -2 -32 3 -32 5 0 7 -7 4 -15 -4 -8 -1 -15 5
-15 7 0 14 7 17 15 4 8 10 15 15 15 5 0 4 -9 -3 -20 -10 -15 -10 -22 0 -32 9
-9 12 -9 12 2 0 9 5 7 14 -6 8 -10 19 -20 25 -20 6 -1 16 -2 21 -3 15 -2 12
-31 -4 -31 -14 0 -30 -29 -21 -38 3 -3 17 0 31 7 22 10 26 9 21 -3 -4 -9 -2
-18 3 -21 6 -4 10 -1 10 5 0 7 5 10 12 8 13 -5 39 -105 32 -122 -3 -6 -15 -18
-28 -28 -20 -15 -25 -15 -54 -1 -17 8 -29 20 -25 26 4 7 0 8 -11 4 -14 -5 -17
-3 -12 8 3 9 0 15 -9 15 -8 0 -15 5 -15 11 0 6 -9 8 -20 4 -13 -4 -20 -2 -20
6 0 7 -3 9 -7 5 -4 -3 -12 4 -19 16 l-12 23 -7 -28 c-9 -33 -17 -34 -30 -4 -6
13 -21 23 -37 25 -20 2 -25 7 -21 19 4 9 2 14 -3 10 -6 -3 -8 8 -6 29 3 22 0
34 -8 34 -13 0 -11 58 3 78 5 6 7 12 3 12 -4 0 0 13 9 30 8 16 14 31 13 33 -8
8 43 49 78 61 48 18 51 18 58 7z m-1154 -132 c0 -11 -14 -28 -32 -40 l-33 -20
37 7 c30 5 39 3 44 -10 4 -9 4 -19 1 -22 -3 -3 -47 -16 -98 -29 -71 -18 -95
-21 -101 -12 -14 22 -8 36 22 52 39 20 38 27 -4 20 -26 -5 -35 -3 -40 11 -3 9
-5 18 -4 20 7 7 194 51 201 47 4 -2 7 -13 7 -24z m57 -235 c-1 -1 -15 -9 -32
-18 l-30 -16 38 6 c35 6 37 5 37 -20 0 -27 7 -24 -133 -60 -57 -14 -58 -14
-66 7 -11 27 -5 37 19 37 10 0 22 5 25 10 4 6 -8 10 -29 10 -31 0 -36 3 -36
24 0 21 3 23 48 19 39 -3 56 1 97 26 l50 30 7 -26 c4 -15 6 -28 5 -29z m21
-120 c23 -16 30 -66 13 -92 -9 -15 -102 -42 -143 -42 -43 0 -73 60 -49 99 7
11 114 48 146 50 6 1 21 -6 33 -15z m44 -134 c0 -5 1 -15 2 -22 1 -7 -19 -18
-44 -25 l-45 -12 50 2 c39 2 50 -1 53 -15 2 -11 -8 -20 -33 -28 -46 -15 -39
-25 9 -12 20 6 36 7 36 3 0 -10 -189 -53 -201 -45 -17 10 -9 22 29 38 l37 16
-38 -3 c-34 -3 -40 0 -48 21 -5 14 -8 30 -6 36 2 6 41 20 88 32 99 26 109 27
111 14z m2340 -319 c38 -17 150 -133 192 -199 13 -22 39 -50 56 -63 18 -13 64
-53 104 -89 39 -36 97 -85 130 -109 68 -51 67 -53 -48 -83 -76 -20 -209 -24
-266 -8 -44 12 -323 60 -349 60 -34 0 -86 -56 -119 -128 -18 -38 -40 -76 -50
-85 -17 -16 -21 -11 -71 78 -102 179 -248 338 -365 395 -54 27 -74 31 -119 28
l-55 -3 13 25 c15 28 127 89 215 115 50 15 59 15 99 1 62 -22 104 -20 175 10
33 14 70 30 81 34 11 4 31 13 46 19 14 7 29 11 35 10 5 -1 16 1 24 4 45 19
219 12 272 -12z"/>
<path d="M3333 6880 c-39 -10 -89 -28 -111 -39 -63 -32 -118 -109 -79 -112 6
0 19 -2 27 -4 90 -23 113 -26 180 -20 146 12 148 22 5 21 -77 -1 -152 2 -168
7 l-27 7 20 22 c11 12 20 29 20 37 0 9 9 1 20 -17 11 -18 31 -37 45 -42 31
-12 82 5 96 31 13 25 4 24 -22 -2 -14 -14 -30 -19 -52 -17 -38 4 -43 21 -7 26
13 2 33 10 44 18 11 8 28 14 38 14 13 0 18 8 18 30 0 30 1 30 55 30 47 0 59
-4 90 -32 24 -21 35 -37 32 -50 -3 -10 -1 -18 4 -18 5 0 9 4 9 10 0 5 7 7 15
4 24 -10 18 7 -16 42 -26 27 -29 35 -20 53 11 21 10 21 -66 20 -43 0 -110 -9
-150 -19z"/>
<path d="M4264 6048 c53 -36 78 -65 107 -124 18 -35 29 -67 26 -70 -3 -3 -18
0 -34 8 -25 13 -30 12 -48 -4 -11 -11 -26 -16 -37 -12 -10 3 -18 1 -18 -5 0
-6 -7 -11 -15 -11 -8 0 -15 -4 -15 -10 0 -25 -19 -6 -29 28 -7 25 -9 28 -7 9
3 -26 -15 -57 -33 -57 -4 0 -13 17 -19 38 -7 20 -21 48 -32 62 l-20 25 16 -39
c14 -35 12 -78 -3 -62 -3 3 -12 -3 -20 -14 -23 -33 -40 -24 -45 24 -3 24 -12
53 -20 64 -12 19 -13 14 -10 -42 4 -57 2 -65 -19 -80 -31 -21 -39 -20 -39 6 0
19 -2 20 -17 6 -10 -9 -24 -13 -32 -10 -10 3 -12 0 -8 -11 4 -11 2 -14 -8 -11
-11 5 -12 10 -3 24 7 10 16 16 22 13 5 -3 6 -1 2 5 -3 5 -2 12 4 14 5 1 6 9 1
16 -5 9 -17 -1 -40 -33 -18 -25 -34 -45 -37 -45 -3 0 -3 3 -1 8 3 4 -1 12 -8
19 -10 9 -24 -1 -66 -43 -52 -53 -79 -64 -109 -44 -14 9 -13 11 9 14 5 0 13 5
18 10 5 5 2 6 -6 1 -9 -5 -12 -3 -9 6 3 8 9 13 14 12 5 -1 10 10 10 23 1 16
-2 21 -10 17 -6 -4 -20 -9 -30 -10 -11 -2 -25 -12 -33 -23 -25 -35 -43 -49
-58 -44 -8 4 -17 -1 -21 -9 -3 -9 -12 -13 -19 -11 -8 3 -20 -6 -29 -23 -12
-23 -15 -24 -15 -8 0 11 6 37 13 58 8 20 12 37 9 37 -9 0 -33 -71 -33 -99 0
-16 -6 -36 -13 -43 -8 -7 -16 -20 -20 -28 -3 -9 -6 -4 -6 12 -1 15 3 38 9 53
6 16 6 24 0 20 -10 -6 -42 -73 -66 -135 l-13 -35 -2 65 c-1 58 -2 61 -9 30 -5
-19 -7 -45 -4 -57 12 -64 15 -73 24 -73 6 0 10 11 10 24 0 28 29 100 30 73 0
-10 8 -27 19 -38 17 -18 19 -18 25 -3 3 9 12 14 21 10 8 -3 15 -1 15 5 0 5 12
15 28 21 15 7 36 19 47 28 46 39 109 52 295 66 168 11 194 16 286 48 75 26
110 34 140 30 l39 -5 -22 19 c-26 23 -21 32 13 26 14 -3 24 0 24 7 0 8 6 7 17
-2 13 -11 17 -11 20 -2 4 10 10 10 25 2 18 -9 20 -9 15 4 -4 11 -2 14 9 10 9
-3 14 1 14 11 0 9 6 27 14 39 8 12 17 33 20 47 l7 25 -20 -22 c-10 -13 -22
-23 -25 -23 -10 0 -36 72 -29 83 4 6 1 7 -6 3 -8 -6 -11 -2 -9 10 2 11 -2 18
-9 17 -7 -2 -13 2 -13 7 0 15 -50 59 -85 76 -18 8 -22 9 -11 2z m-114 -283 c1
12 4 15 7 7 3 -7 -3 -23 -13 -34 -11 -12 -14 -19 -8 -15 6 3 26 9 45 11 l34 6
-29 -16 c-16 -9 -61 -28 -100 -42 -64 -23 -89 -26 -260 -30 -135 -3 -186 -1
-182 7 4 6 21 11 39 11 21 0 42 10 66 33 21 20 32 25 28 15 -9 -25 9 -22 47 7
31 23 84 26 70 3 -8 -12 49 -5 89 11 37 15 42 14 27 -4 -10 -13 -9 -15 10 -15
16 0 20 -4 16 -15 -11 -30 22 -14 60 28 30 32 41 39 46 27 5 -12 7 -10 8 5z"/>
<path d="M4271 5556 c-40 -42 -85 -56 -248 -77 -87 -11 -174 -24 -193 -29 -78
-22 -176 -6 -209 33 -7 10 -18 17 -24 17 -19 0 36 -50 78 -70 52 -25 92 -25
185 1 41 11 139 28 218 38 132 17 146 21 173 47 28 26 55 64 46 64 -2 0 -14
-11 -26 -24z"/>
<path d="M1966 6778 c-9 -12 -16 -29 -16 -38 1 -8 7 -3 16 13 20 37 24 34 13
-10 -15 -66 -10 -116 19 -173 38 -75 52 -76 52 -3 0 59 24 163 38 163 14 0
104 -84 112 -104 8 -23 -1 -47 -36 -89 -33 -39 -30 -55 16 -125 44 -66 48 -77
23 -64 -10 5 -23 7 -30 5 -7 -2 -28 20 -47 50 -19 30 -43 57 -53 61 -16 5 -16
5 -2 -6 8 -7 28 -34 43 -60 38 -65 49 -72 131 -79 80 -6 122 -29 157 -83 17
-27 19 -28 13 -6 -9 31 -31 58 -67 79 -28 18 -92 104 -108 145 -7 19 -4 28 16
47 13 12 24 31 24 41 0 53 -87 160 -185 228 -54 37 -107 40 -129 8z"/>
<path d="M1903 2931 c-12 -10 -67 -38 -123 -61 -160 -68 -189 -114 -280 -451
-46 -169 -48 -189 -20 -189 49 0 242 210 307 335 23 45 25 55 19 132 l-7 83
47 50 c26 27 44 50 40 50 -4 0 5 16 20 35 30 39 29 43 -3 16z"/>
<path d="M3093 1005 c-48 -34 -37 -153 28 -292 18 -37 31 -74 30 -80 -1 -7 0
-13 3 -13 12 0 25 41 46 140 25 125 18 172 -37 226 -38 39 -41 39 -70 19z m62
-41 c31 -33 40 -79 29 -152 -8 -47 -12 -57 -29 -57 -31 0 -69 78 -70 145 0 93
23 115 70 64z"/>
<path d="M7560 464 c0 -8 5 -24 10 -35 8 -14 7 -19 -2 -19 -38 0 -97 -37 -122
-76 -26 -42 -37 -124 -16 -124 6 0 10 14 10 30 0 34 20 79 43 99 16 13 17 11
31 -51 5 -23 3 -28 -14 -28 -11 0 -20 -4 -20 -10 0 -9 13 -14 31 -12 7 1 -8
-75 -17 -90 -3 -4 1 -8 9 -8 16 0 37 49 37 85 0 38 23 48 64 28 20 -9 36 -23
36 -30 0 -7 5 -13 11 -13 8 0 10 19 6 64 -3 35 -3 66 0 70 4 3 19 -5 34 -20
19 -18 33 -24 48 -19 26 8 26 22 0 60 -11 17 -27 42 -35 58 -14 27 -14 27 15
27 43 0 91 -44 91 -84 0 -77 -134 -196 -222 -196 -16 0 -28 -4 -28 -10 0 -15
76 -12 118 5 76 32 162 140 162 203 0 88 -144 149 -206 87 l-25 -25 -11 25
c-12 28 -38 34 -38 9z"/>
</g>
</svg>
